<svg width="902" height="127" viewBox="0 0 902 127" fill="none" xmlns="http://www.w3.org/2000/svg">
<path fill-rule="evenodd" clip-rule="evenodd" d="M443.705 20.7897C464.557 20.7763 483.208 34.4002 489.299 54.4101C495.086 73.4249 485.546 93.2498 469.164 104.434C454.283 114.594 435.142 111.821 420.414 101.438C404.802 90.4317 392.979 72.8576 398.289 54.4685C404.081 34.4118 422.893 20.803 443.705 20.7897Z" fill="#C3C4D0"/>
<path fill-rule="evenodd" clip-rule="evenodd" d="M809.647 25.0546C826.274 12.7995 847.877 23.1626 864.293 35.2077C880.219 46.8939 895.156 64.1393 888.542 82.9457C882.106 101.245 859.436 104.877 840.073 104.073C823.945 103.404 810.019 94.3832 804.269 79.4501C797.073 60.7618 793.287 37.1137 809.647 25.0546Z" fill="#C3C4D0"/>
<path fill-rule="evenodd" clip-rule="evenodd" d="M55.4806 21.8008C76.8393 22.1468 98.5211 32.738 104.114 53.3817C109.155 71.9858 91.7329 86.3768 75.9772 97.4532C61.324 107.754 43.5279 116.088 28.2791 106.694C9.14177 94.9038 -5.11403 73.1471 1.75053 51.7235C8.67245 30.1209 32.8263 21.4338 55.4806 21.8008Z" fill="#C3C4D0"/>
<path d="M868.23 15.4889L868.23 15.489C864.773 16.2506 862.17 18.5952 861.066 21.9296C860.886 22.4734 860.816 22.7273 860.767 23.2263C860.71 23.8052 860.688 24.669 860.657 26.4194L860.657 26.4194C860.622 28.3961 860.632 29.4399 860.726 30.167C860.807 30.8006 860.949 31.1851 861.278 31.8297C861.796 32.8452 863.214 33.8908 864.746 34.1756L868.23 15.4889ZM868.23 15.4889C868.604 15.4064 869.544 15.3129 870.288 15.3027M868.23 15.4889L870.288 15.3027M870.288 15.3027L870.251 22.4423L870.208 30.7581L869.918 31.3492C869.918 31.3492 869.918 31.3492 869.918 31.3492C868.898 33.4236 866.691 34.5369 864.746 34.1756L870.288 15.3027ZM876.654 35.1812L876.654 35.1813C876.155 36.1803 875.294 37.2613 874.394 38.174C873.495 39.0858 872.429 39.9608 871.441 40.4672C868.056 42.2014 864.399 42.4522 860.933 41.1418C860.259 40.8871 859.402 40.4087 858.667 39.9377C858.337 39.7264 857.993 39.4922 857.673 39.2531C856.897 40.5158 856.189 41.4902 855.139 42.5544C854.033 43.675 852.57 44.8714 850.307 46.6323L850.307 46.6323C848.187 48.2813 846.638 49.638 845.449 50.8714C841.788 54.6669 839.295 59.3678 838.275 64.3695M876.654 35.1812L849.247 73.4391C851.712 73.7698 853.534 75.0809 854.416 76.9511L855.772 76.3112L854.416 76.9511C854.928 78.0368 855.088 78.7739 855.088 80.9217C855.088 81.764 855.094 82.3842 855.161 82.8525C855.249 83.4638 855.445 83.8537 855.705 84.2351L856.945 83.3907C857.557 84.29 858.015 84.5198 859.489 84.6691L859.338 86.1615C859.338 86.1615 859.338 86.1615 859.338 86.1615C861.203 86.3505 862.549 87.0251 863.587 88.1787L863.587 88.1787C864.206 88.8677 864.594 89.5087 864.84 90.2266C865.09 90.9593 865.22 91.8501 865.22 93.0739V93.2787L852.251 93.241C845.07 93.2201 841.474 93.2089 839.614 93.163C838.769 93.1421 838.349 93.1149 838.135 93.0886C838.041 93.005 837.929 92.8926 837.848 92.8005C837.826 92.6357 837.802 92.3161 837.782 91.692C837.735 90.2147 837.722 87.388 837.699 81.75C837.648 69.6731 837.758 66.9041 838.275 64.3695M876.654 35.1812C877.292 33.902 877.685 33.0619 877.867 31.2523C878.032 29.6063 878.035 27.0576 878.035 22.3061V15.2897M876.654 35.1812L878.035 15.2897M838.275 64.3695L836.805 64.0697M838.275 64.3695L836.805 64.0697M836.805 64.0697C836.25 66.792 836.148 69.7459 836.199 81.7562C836.246 93.003 836.251 93.1799 836.573 93.61C836.752 93.8502 837.096 94.1935 837.336 94.3729L849.386 45.4484C847.235 47.1216 845.626 48.5268 844.369 49.83C840.516 53.8245 837.884 58.7807 836.805 64.0697ZM878.035 15.2897H879.374C880.148 15.2897 880.881 15.3075 881.443 15.3358C881.698 15.3487 881.908 15.3633 882.064 15.378C882.088 15.3982 882.114 15.4206 882.143 15.4452C882.36 15.6306 882.659 15.8995 883.023 16.2371C883.748 16.9098 884.695 17.8222 885.687 18.8097L889.328 22.4357L889.761 22.8674L890.373 22.8728L895.388 22.9171C897.805 22.9384 899.005 22.9535 899.662 22.9981C899.844 23.0105 899.953 23.0236 900.013 23.0326C900.233 23.1986 900.3 23.2574 900.329 23.2884C900.333 23.299 900.339 23.3176 900.346 23.3466C900.381 23.4865 900.417 23.7443 900.442 24.2632C900.466 24.7703 900.477 25.4379 900.49 26.367C900.519 28.3564 900.486 29.5098 900.352 30.3823C900.227 31.1942 900.009 31.7952 899.575 32.6564C898.904 33.9874 898.092 34.9372 896.932 35.7644C895.212 36.9912 893.609 37.4368 889.25 37.4391L886.849 37.4404L885.359 37.4412L885.349 38.9309L885.282 49.5685C885.216 59.9408 885.193 60.147 884.9 61.4731C884.342 63.989 883.14 66.6279 881.675 68.5782C881.37 68.9846 880.745 69.6862 880.086 70.3699C879.402 71.079 878.832 71.6107 878.63 71.7556L878.63 71.7557L878.194 72.0674L877.567 72.5161V73.2871V76.7346V80.182V81.1157L878.405 81.5279L879.419 82.027L879.42 82.0271C880.492 82.5544 881.496 83.5618 882.064 84.7144C882.614 85.8308 882.838 87.0774 882.766 90.4489L884.265 90.4812L882.766 90.449C882.736 91.8571 882.681 92.442 882.589 92.7599C882.557 92.8694 882.532 92.9011 882.519 92.9178L882.518 92.9178C882.494 92.9486 882.44 93.0077 882.288 93.1244C882.278 93.1258 882.267 93.1273 882.256 93.1289C882.175 93.1397 882.056 93.1514 881.881 93.1623C881.15 93.208 879.8 93.2223 877.065 93.2443L872.969 93.2775V92.9581C872.969 89.8205 872.311 87.2586 870.81 84.9379L870.81 84.9377L870.436 84.3592V78.1081V78.0294C870.436 74.7671 870.436 73.0601 870.389 72.116C870.366 71.6485 870.328 71.2467 870.23 70.8957C870.113 70.4774 869.932 70.2119 869.827 70.0583L869.82 70.0469C869.474 69.5395 869.056 69.0706 868.502 68.7366C867.928 68.3905 867.319 68.2563 866.703 68.247L866.703 68.247C865.389 68.2273 864.18 68.8398 863.397 69.8882L878.035 15.2897ZM862.703 77.9462C861.767 71.4635 856.905 66.5691 850.404 65.7697C849.649 65.6769 848.991 65.6223 848.387 65.6958C847.711 65.778 847.194 66.0059 846.691 66.3076L846.691 66.3076C845.474 67.0382 844.962 68.3433 844.973 69.5148C844.984 70.6885 845.516 71.9643 846.678 72.7251C846.678 72.7249 846.678 72.7248 846.678 72.7247L862.703 77.9462ZM862.703 77.9462L862.72 76.0992L862.72 76.0991C862.742 73.7883 862.757 72.5017 862.81 71.7491C862.837 71.3733 862.879 71.0225 862.977 70.7023C863.094 70.3195 863.263 70.0679 863.397 69.8883L862.703 77.9462ZM882.286 15.4052C882.286 15.4052 882.281 15.4045 882.274 15.4028C882.282 15.4043 882.286 15.4051 882.286 15.4052ZM822.895 81.5159L822.895 81.5158C822.916 81.5015 822.933 81.491 822.944 81.4833C822.983 81.4765 823.066 81.4641 823.222 81.4528C823.783 81.4121 824.813 81.4092 827.009 81.4092H829.919L829.921 86.1185C829.923 88.9594 829.946 90.8984 830.009 92.2284C830.026 92.5846 830.046 92.9137 830.071 93.2173C829.126 93.0944 828.074 92.79 827.165 92.3496L827.165 92.3496C826.65 92.1001 825.91 91.5588 825.178 90.8706C824.446 90.1821 823.863 89.4782 823.586 88.9833L823.586 88.9831C823.144 88.1941 822.919 87.6621 822.777 87.0484C822.628 86.4008 822.555 85.5922 822.518 84.2189C822.478 82.7245 822.508 82.1275 822.588 81.8195C822.602 81.765 822.614 81.7413 822.616 81.7358C822.618 81.7321 822.618 81.7315 822.621 81.728C822.634 81.7126 822.688 81.654 822.895 81.5159ZM831.445 93.2671C831.445 93.2671 831.442 93.2675 831.436 93.2681C831.441 93.2673 831.444 93.2671 831.445 93.2671Z" stroke="#240401" stroke-width="3"/>
<path d="M56.6093 46.1426L57.7915 45.2195C61.6726 50.1901 69.8672 48.6441 71.8517 42.2706C71.9869 41.8363 72.1141 40.7905 72.2037 38.4619L72.2037 38.4618C72.2781 36.5343 72.3867 35.1542 72.6948 33.99C73.02 32.7609 73.5454 31.8487 74.2936 30.8075L74.2938 30.8073C74.8507 30.0326 75.6264 29.2479 76.4064 28.6C77.1718 27.9642 78.0571 27.3636 78.8629 27.0485L78.8629 27.0485L79.5338 26.7862L81.58 25.9864V28.1833V29.8915V31.6V32.2575L81.0964 32.7031L80.0703 33.6484C80.0703 33.6485 80.0702 33.6485 80.0702 33.6485C79.5419 34.1354 79.0872 34.7358 78.9037 35.1093L78.9036 35.1095C78.724 35.4749 78.6718 35.6067 78.6216 35.9579C78.5548 36.4247 78.516 37.1655 78.4514 38.7366L78.4514 38.7367C78.3563 41.0475 78.2157 42.5333 77.9342 43.6285L77.9342 43.6286C76.811 47.9979 73.5754 51.692 69.403 53.3549C67.5323 54.1005 66.3821 54.3396 64.36 54.4051L63.1717 54.4436L58.5291 57.1628L57.771 55.8684L58.5291 57.1628C53.2928 60.2295 49.4653 62.5108 46.754 64.187C44.0124 65.8819 42.4901 66.911 41.7987 67.4883L41.7986 67.4884C38.174 70.5139 36.4351 74.2287 36.4339 78.9478C36.4334 80.8562 36.7322 82.4319 37.3114 83.8116L35.9283 84.3923L37.3114 83.8117C37.3909 84.0009 37.4653 84.1894 37.5222 84.3448C37.5501 84.4209 37.5784 84.5017 37.6019 84.5768C37.6132 84.6131 37.6283 84.6637 37.6422 84.7199L37.6428 84.7223C37.6488 84.7459 37.6908 84.9102 37.6908 85.1088C37.6908 85.8762 37.1526 86.2682 37.0456 86.3426C36.8792 86.4584 36.7281 86.5125 36.6767 86.5303C36.5545 86.5728 36.4513 86.5907 36.4208 86.596C36.3377 86.6105 36.2595 86.6178 36.215 86.6216C36.1123 86.6305 35.9842 86.6373 35.8485 86.6429C35.5698 86.6546 35.1787 86.6647 34.7097 86.673C33.768 86.6897 32.4755 86.7 31.058 86.7C28.1284 86.7 26.7335 86.7201 25.8978 86.8487C25.5241 86.9062 25.3392 86.9762 25.2124 87.0415C25.0688 87.1155 24.9152 87.2258 24.6125 87.4837L23.6415 86.3439L24.6125 87.4837C23.8394 88.1424 23.5 88.862 23.5 89.9965C23.5 90.7651 23.6644 91.3251 23.932 91.7589C24.2008 92.1946 24.6379 92.6066 25.3485 92.9743L25.3486 92.9743L25.8003 93.2081L46.6529 93.2522C57.0645 93.2742 62.3553 93.2836 65.128 93.2466C66.5274 93.2279 67.2289 93.1976 67.6105 93.1588C67.7001 93.1497 67.7609 93.1412 67.8011 93.1344C67.8198 93.1312 67.8331 93.1286 67.8418 93.1267C67.8443 93.1255 67.8471 93.1241 67.8504 93.1224L67.8516 93.1245L67.8505 93.1224C68.8331 92.6234 69.1625 91.6214 68.6486 90.6213L68.6485 90.6212C68.2369 89.82 67.4234 88.9641 66.3058 88.2381C65.1998 87.5197 63.8883 86.9899 62.5909 86.774L62.5908 86.774L61.9571 86.6685L60.0035 86.3432L60.846 84.5507L61.3467 83.4856L61.3467 83.4855C62.3643 81.3211 62.6757 78.5211 62.1611 76.2258L62.1611 76.2256C61.8454 74.8168 60.9542 72.9394 60.0032 71.7092L59.1279 70.5774L58.3119 69.5221L59.2647 68.5884L60.382 67.4935L60.3821 67.4934L61.4995 66.3986L62.6065 65.314L63.6544 66.4557L64.4322 67.3032L64.4323 67.3033C66.2888 69.3266 67.8301 72.6063 68.3938 75.5896C68.6435 76.9105 68.691 78.8512 68.5408 80.4452H70.25H73.7117H75.2117V81.9452V87.0898C75.2117 89.2177 75.2236 90.4964 75.2607 91.3046C75.2977 92.1127 75.3578 92.2798 75.3598 92.2852C75.4994 92.6175 75.5931 92.7414 75.6561 92.8069C75.7171 92.8704 75.8303 92.9639 76.1425 93.1065C76.1454 93.1078 76.1484 93.1094 76.1518 93.1111C76.2002 93.1357 76.3262 93.1998 77.2228 93.2381C78.1933 93.2796 79.8601 93.2875 82.9723 93.2892C86.6156 93.2912 88.3176 93.2886 89.2497 93.194C89.6906 93.1492 89.8209 93.0944 89.8528 93.0794C89.8848 93.0646 89.9181 93.0488 90.1696 92.829L90.17 92.8286C90.2126 92.7915 90.3408 92.6377 90.4602 92.3477C90.5744 92.0702 90.628 91.794 90.628 91.5992C90.628 91.0541 90.4041 90.3853 89.1716 89.1585C88.1339 88.1258 86.6728 87.2999 85.2195 86.9318C84.8719 86.8438 84.4228 86.7223 84.0633 86.5042C83.854 86.3772 83.5797 86.1629 83.3854 85.8114C83.1812 85.4421 83.1494 85.0752 83.1724 84.796L56.6093 46.1426ZM56.6093 46.1426L57.7915 45.2195M56.6093 46.1426L57.7915 45.2195M83.5055 81.9021L83.5055 81.9019L83.8069 79.3817L83.8866 78.7146L84.4374 78.33L85.4129 77.6487L85.4132 77.6485C86.5853 76.8304 88.2679 75.1111 89.0638 73.918L90.3117 74.7504L89.0638 73.918C90.8154 71.2925 91.522 68.9314 91.5027 65.7634C91.4843 62.78 90.7531 60.361 89.1682 57.9794C88.7722 57.3842 88.1212 56.5824 87.4719 55.8729C87.1509 55.5221 86.8463 55.2113 86.5912 54.9733C86.4637 54.8542 86.357 54.7614 86.2734 54.6942C86.1986 54.634 86.1641 54.6123 86.1643 54.612C86.1643 54.612 86.1662 54.613 86.1698 54.6151L86.8998 53.3047L86.1701 54.6152C85.7227 54.3661 85.4697 53.9807 85.3384 53.6072C85.2336 53.3087 85.1955 52.9875 85.1737 52.7162C85.1284 52.1499 85.1203 51.2429 85.1203 49.8171V46.4853V44.986L86.6196 44.9853L91.9982 44.9827C95.1156 44.9812 96.6701 44.9583 97.7578 44.8069C98.737 44.6707 99.3214 44.4343 100.509 43.858C102.133 43.0701 103.668 41.8341 104.354 40.8794C104.723 40.3658 105.663 38.86 106.58 37.3352C107.031 36.5853 107.464 35.8516 107.801 35.2627C107.97 34.9678 108.113 34.7145 108.22 34.5163C108.274 34.4172 108.316 34.3365 108.348 34.2742C108.377 34.2176 108.389 34.1903 108.392 34.1847C108.392 34.1838 108.392 34.1835 108.392 34.1837C108.674 33.5109 108.389 32.5656 107.551 32.1068C107.537 32.1047 107.392 32.062 106.98 32.0179C106.471 31.9636 105.71 31.9194 104.551 31.8767L83.5055 81.9021ZM83.5055 81.9021C83.3425 83.2664 83.1899 84.584 83.1724 84.7958L83.5055 81.9021ZM93.408 26.47L93.4079 26.47C90.6619 23.8197 90.2441 23.5201 89.4044 23.1234L89.4042 23.1233C88.7631 22.8203 87.8995 22.5174 87.5577 22.4468L93.408 26.47ZM93.408 26.47C95.6712 28.6541 97.1787 30.042 98.7911 30.8337M93.408 26.47L98.7911 30.8337M91.3897 26.8356L91.3897 26.8356C94.086 27.957 94.4896 31.3455 92.4745 33.2671L92.4745 33.2671C91.8252 33.8862 90.9606 34.1749 90.1936 34.248C89.4244 34.3213 88.5255 34.1998 87.7698 33.7273C85.0796 32.0452 85.5437 28.0904 88.3368 26.8546L91.3897 26.8356ZM91.3897 26.8356C90.9222 26.6412 90.4192 26.5014 89.8621 26.5031M91.3897 26.8356L89.8621 26.5031M67.0272 23.5108C66.1784 24.12 65.0704 25.1198 63.093 26.994C61.01 28.9683 59.6074 30.3365 58.6465 31.3438C57.6765 32.3606 57.2194 32.9459 56.9725 33.3587L67.0272 23.5108ZM67.0272 23.5108C67.7851 22.9667 68.3179 22.7463 69.1797 22.5085M67.0272 23.5108L69.1797 22.5085M69.1797 22.5085C69.1943 22.5066 69.2438 22.4997 69.3429 22.4905C69.4969 22.4762 69.7095 22.4615 69.9802 22.4471C70.5196 22.4183 71.2448 22.3928 72.102 22.3711C73.8137 22.3279 76.0153 22.3011 78.2313 22.2926C80.4472 22.2841 82.6686 22.294 84.4198 22.324C85.2963 22.339 86.0472 22.3589 86.6174 22.3836C86.9032 22.396 87.1348 22.4092 87.3098 22.4227C87.4591 22.4343 87.5318 22.4437 87.5524 22.4463L69.1797 22.5085ZM57.7915 45.2195C56.6094 43.7055 55.8814 41.5825 55.7298 39.3582M57.7915 45.2195L55.7298 39.3582M55.7298 39.3582C55.578 37.1324 56.0137 34.9627 56.9724 33.3588L55.7298 39.3582ZM98.7911 30.8337C100.472 31.6591 102.159 31.7886 104.551 31.8767L98.7911 30.8337ZM89.8621 26.5031C89.3008 26.5047 88.8003 26.6495 88.3371 26.8545L89.8621 26.5031ZM35.9662 83.6318C35.9667 83.6318 35.9657 83.6319 35.9632 83.6321L35.9662 83.6318Z" stroke="#240401" stroke-width="3"/>
<path d="M479.022 93.2773V92.0959C479.022 90.0846 478.926 88.5558 478.539 87.2776C478.128 85.9201 477.425 84.9497 476.444 83.9781C475.523 83.067 474.555 82.3952 473.36 81.9714C472.19 81.5564 470.897 81.4134 469.38 81.4134H468.942C468.603 80.3163 467.94 78.95 467.3 77.978C465.017 74.5114 461.274 72.3052 457.134 71.984L457.134 71.984C456.597 71.9424 456.112 71.9129 455.667 71.9682C455.146 72.0328 454.761 72.1997 454.4 72.3838C454.4 72.3838 454.399 72.3839 454.399 72.3839L479.022 93.2773ZM479.022 93.2773H479.105H479.188V76.9751C479.188 68.2195 479.19 63.7482 479.23 61.3929C479.269 59.1665 479.323 58.5477 479.671 57.8668L479.671 57.8666C480.002 57.2188 480.538 56.7149 481.09 56.3763C481.642 56.0378 482.335 55.7873 483.063 55.7873C483.791 55.7873 484.484 56.0378 485.035 56.3763C485.587 56.7149 486.124 57.2188 486.455 57.8666L486.455 57.8668C486.802 58.5477 486.857 59.1665 486.895 61.3929C486.936 63.7482 486.937 68.2195 486.937 76.9751V93.2773H491.617C494.578 93.2773 496.085 93.273 496.932 93.2334C497.355 93.2136 497.537 93.1876 497.621 93.1696L497.625 93.1687C497.66 93.1614 497.667 93.1599 497.74 93.1225M479.022 93.2773L497.74 93.1225M497.74 93.1225C497.74 93.1225 497.74 93.1226 497.74 93.1226L498.419 94.4543L497.74 93.1225ZM500.527 36.0082C499.299 36.1319 498.185 36.4514 497.264 37.0868C496.318 37.74 495.692 38.6481 495.33 39.7362L496.753 40.2093L500.526 36.0083C500.526 36.0083 500.526 36.0082 500.527 36.0082ZM500.527 36.0082C502.348 35.8246 503.487 35.0106 504.161 33.574C504.272 33.3394 504.302 33.2677 504.325 33.1919C504.344 33.1281 504.372 33.0137 504.396 32.7396C504.448 32.1404 504.461 31.1018 504.485 28.8405M500.527 36.0082L504.485 28.8405M492.678 16.8867L492.678 16.8869L492.678 16.8869C492.678 16.887 492.679 16.8876 492.68 16.889L492.688 16.8954C492.694 16.9011 492.703 16.9088 492.714 16.9189C492.736 16.9392 492.764 16.9658 492.799 16.9994C492.87 17.0667 492.958 17.1541 493.065 17.2609C493.277 17.4742 493.546 17.7517 493.855 18.0756C494.472 18.7227 495.234 19.5403 495.988 20.3701L498.757 23.4164L499.183 23.885L499.816 23.9065L502.138 23.9856C503.207 24.022 503.701 24.05 503.984 24.0933C504.049 24.1034 504.086 24.1119 504.102 24.1164C504.109 24.1209 504.12 24.1284 504.136 24.1398L492.678 16.8867ZM492.678 16.8867C492.07 16.3762 490.694 15.6915 489.761 15.4648M492.678 16.8867L475.139 27.5797M475.139 27.5797L475.139 27.5796C473.856 24.0314 473.799 23.6647 473.799 22.4852C473.799 19.2023 476.147 16.2342 479.329 15.4846L479.329 15.4846C479.329 15.4846 479.342 15.4818 479.371 15.477C479.401 15.472 479.442 15.4661 479.494 15.4596C479.599 15.4464 479.735 15.4329 479.902 15.4196C480.235 15.393 480.659 15.3698 481.152 15.3506C482.136 15.3123 483.352 15.2917 484.572 15.2898C485.793 15.2879 487.006 15.3047 487.982 15.3399C488.471 15.3576 488.891 15.3795 489.219 15.405C489.382 15.4177 489.515 15.4307 489.616 15.4433C489.709 15.4548 489.752 15.4631 489.76 15.4647C489.761 15.465 489.762 15.465 489.761 15.4648M475.139 27.5797C475.698 29.1286 476.051 29.9468 476.36 30.437C476.605 30.8259 476.787 30.9599 477.105 31.1044M475.139 27.5797L477.105 31.1044M489.761 15.4648L490.114 14.0107L489.761 15.4648C489.761 15.4648 489.761 15.4648 489.761 15.4648ZM439.897 93.2725C438.673 91.1237 438.181 89.0515 438.073 86.0736L438.042 85.2029L436.419 85.2414C433.615 85.3077 433.395 85.3557 432.48 85.6557C432.48 85.6557 432.48 85.6557 432.48 85.6557L439.897 93.2725ZM439.897 93.2725L434.909 93.2435L427.537 93.2007L427.306 93.0571L427.306 93.0569C426.658 92.6544 426.376 91.9096 426.552 91.2464C426.724 90.5981 427.229 89.6843 427.999 88.7495C428.756 87.8296 429.66 87.023 430.489 86.5359L439.897 93.2725ZM504.485 28.8405C504.513 26.2854 504.507 25.147 504.406 24.5345M504.485 28.8405L504.406 24.5345M504.406 24.5345C504.385 24.4033 504.364 24.3355 504.353 24.3068M504.406 24.5345L504.353 24.3068M504.353 24.3068C504.333 24.288 504.275 24.2389 504.136 24.1399L504.353 24.3068ZM477.105 31.1044C477.943 31.4849 479.203 31.2307 479.846 30.5298L477.105 31.1044ZM471.078 89.4658C471.078 89.4653 471.077 89.4648 471.077 89.4644L479.846 30.5297C480.121 30.2289 480.325 29.946 480.726 27.2777L480.726 27.2776C480.812 26.7089 480.921 26.1479 481.034 25.682C481.09 25.45 481.151 25.227 481.214 25.0311C481.267 24.8683 481.356 24.6126 481.494 24.3864C483.097 21.7509 486.885 22.0684 488.246 24.7036L488.246 24.7037L488.562 25.3155L488.784 25.7467L488.712 26.2266L488.353 28.6203L488.353 28.6204C488.155 29.9362 487.837 31.5541 487.622 32.2096L487.622 32.2096C486.565 35.4166 483.923 37.8752 480.638 38.7302L480.638 38.7302C479.535 39.0174 478.261 39.0737 477.074 38.9632C476.249 38.8864 475.403 38.7231 474.634 38.4613C473.115 42.7442 470.433 46.4257 466.836 49.1526L465.929 47.9572L466.836 49.1526C465.144 50.435 463.768 51.1917 461.244 52.2673L461.244 52.2673C457.905 53.6899 455.731 55.112 453.343 57.4129L453.343 57.4129C449.929 60.7035 447.747 64.4462 446.601 68.9662C445.869 71.8545 445.75 73.3662 445.811 81.0824L445.862 87.6102L446.172 88.411L446.172 88.4112C447.026 90.615 448.51 92.0856 450.76 92.9365C450.969 93.0155 451.036 93.0389 451.191 93.0646C451.394 93.0982 451.743 93.131 452.469 93.1559C453.916 93.2054 456.586 93.2179 461.977 93.2419L471.274 93.283V92.1671C471.274 90.5774 471.219 89.9061 471.115 89.5639C471.096 89.5007 471.082 89.4727 471.078 89.4658ZM504.113 24.1197C504.113 24.1197 504.113 24.1195 504.111 24.1191L504.113 24.1197ZM504.346 24.2895C504.346 24.2897 504.347 24.292 504.349 24.2959C504.347 24.2913 504.346 24.2893 504.346 24.2895Z" stroke="#240401" stroke-width="3"/>
</svg>
