<svg width="341" height="659" viewBox="0 0 341 659" fill="none" xmlns="http://www.w3.org/2000/svg">
<g opacity="0.3">
<g filter="url(#filter0_b_4176_145)">
<path d="M162.381 502.849L162.382 502.848C169.167 493.089 174.318 483.457 178.79 474.421C180.321 471.328 181.763 468.328 183.159 465.421C185.873 459.769 188.418 454.472 191.12 449.54C199.193 434.804 208.206 424.244 225.569 420.275C243.109 417.305 255.639 423.588 268.931 434.115C273.489 437.726 278.052 441.765 282.926 446.079C285.245 448.132 287.635 450.247 290.128 452.408C297.806 459.064 306.328 466.028 316.376 472.508L316.388 472.516L316.401 472.524C345.428 490.775 359.248 510.139 362.623 526.255C365.959 542.191 359.19 555.281 346.06 561.938C332.913 568.604 318.614 565.255 302.728 560.605C301.51 560.248 300.283 559.884 299.048 559.517C284.537 555.211 268.87 550.561 253.192 553.986C237.482 556.842 224.979 567.08 213.4 576.561C212.361 577.412 211.33 578.257 210.304 579.089C197.56 589.434 185.738 597.938 170.921 596.709C156.074 595.478 144.573 585.944 141.275 569.981C137.942 553.851 142.94 530.768 162.381 502.849Z" stroke="#C3A78E" stroke-width="5"/>
</g>
<g filter="url(#filter1_b_4176_145)">
<path d="M129.237 410.224L129.239 410.226C142.101 422.073 150.624 436.09 154.073 449.077C157.53 462.097 155.825 473.712 148.866 481.364C141.904 489.018 130.632 491.782 117.516 489.484C104.425 487.19 89.8397 479.876 76.9148 467.913C63.9875 455.947 55.4494 441.899 52.0086 428.929C48.5595 415.927 50.2931 404.375 57.2749 396.781C64.2658 389.177 75.5588 386.438 88.6791 388.738C101.773 391.032 116.344 398.319 129.237 410.224Z" stroke="#C3A78E" stroke-width="5"/>
</g>
<g filter="url(#filter2_b_4176_145)">
<path d="M312.294 372.771L312.297 372.765C319.622 357.646 330.293 345.752 341.437 338.704C352.629 331.626 363.929 329.633 372.851 333.476C381.728 337.3 387.387 346.459 388.95 358.855C390.511 371.23 387.903 386.479 380.571 401.613C373.246 416.731 362.576 428.625 351.431 435.673C340.239 442.752 328.939 444.745 320.017 440.902C311.141 437.078 305.467 427.893 303.897 415.481C302.33 403.094 304.937 387.847 312.294 372.771Z" stroke="#C3A78E" stroke-width="5"/>
</g>
<g filter="url(#filter3_b_4176_145)">
<path d="M192.04 320.595C198.762 337.668 200.362 354.775 197.545 368.631C194.725 382.505 187.569 392.825 177.011 397.068C166.478 401.301 154.412 398.663 143.044 390.428C131.684 382.199 121.301 368.541 114.515 351.478C107.737 334.439 106.135 317.329 108.884 303.503C111.64 289.645 118.664 279.429 128.851 275.374C139.048 271.315 151.301 273.866 162.947 281.991C174.563 290.095 185.268 303.571 192.04 320.595Z" stroke="#C3A78E" stroke-width="5"/>
</g>
<g filter="url(#filter4_b_4176_145)">
<path d="M260.471 379.895C249.738 380.046 239.442 373.247 231.499 361.396C223.582 349.585 218.261 333.077 217.485 314.747C216.734 296.331 220.731 279.842 227.671 268.011C234.622 256.159 244.309 249.27 254.975 249.146C265.652 249.022 275.923 255.832 283.855 267.693C291.76 279.514 297.082 296.024 297.857 314.354C298.633 332.685 294.689 349.146 287.784 360.977C280.868 372.825 271.195 379.744 260.471 379.895Z" stroke="#C3A78E" stroke-width="5"/>
</g>
</g>
<g filter="url(#filter5_b_4176_145)">
<path d="M240.904 134.225C237.634 130.231 233.061 132.327 226.724 131.4C217.419 130.033 213.771 134.573 215.392 138.635C217.013 142.698 222.965 142.535 225.686 146.18C228.543 149.725 226.963 155.507 230.443 158.094C233.923 160.681 239.184 158.2 240.12 148.77C240.83 142.363 243.946 138.386 240.904 134.225Z" fill="#ECECF9"/>
</g>
<g filter="url(#filter6_b_4176_145)">
<path d="M236.316 122.129C234.955 126.828 231.409 129.958 228.387 129.103C225.365 128.248 224.027 123.781 225.409 119.053C226.791 114.325 230.327 111.21 233.339 112.079C236.35 112.948 237.688 117.415 236.316 122.129Z" fill="#ECECF9"/>
</g>
<g filter="url(#filter7_b_4176_145)">
<path d="M251.733 141.808C247.036 141.848 243.364 144.308 243.529 147.27C243.694 150.231 247.668 152.659 252.375 152.606C257.081 152.553 260.744 150.106 260.58 147.145C260.415 144.183 256.44 141.755 251.733 141.808Z" fill="#ECECF9"/>
</g>
<g filter="url(#filter8_b_4176_145)">
<path d="M251.041 124.48C247.608 128.291 242.837 129.6 240.284 127.333C237.732 125.066 238.605 120.242 242.024 116.421C245.442 112.6 250.228 111.302 252.694 113.507C255.16 115.712 254.459 120.659 251.041 124.48Z" fill="#ECECF9"/>
</g>
<g filter="url(#filter9_b_4176_145)">
<path d="M252.889 126.71C248.404 129.187 245.908 133.51 247.4 136.4C248.891 139.289 253.684 139.597 258.169 137.12C262.654 134.642 265.15 130.319 263.672 127.44C262.195 124.56 257.398 124.228 252.889 126.71Z" fill="#ECECF9"/>
</g>
<g opacity="0.3">
<g filter="url(#filter10_b_4176_145)">
<path d="M150.134 44.8864C143.027 46.2666 142.574 53.308 137.215 60.516C129.339 71.0963 132.517 78.62 138.612 79.3203C144.706 80.0206 148.464 72.5638 154.774 71.6281C161.051 70.4576 167.14 76.2547 172.649 73.6777C178.158 71.1007 178.593 62.9548 167.572 55.528C160.134 50.3895 157.294 43.8974 150.134 44.8864Z" fill="#C3A78E"/>
</g>
<g filter="url(#filter11_b_4176_145)">
<path d="M132.146 42.5061C137.043 47.3123 138.55 53.7729 135.484 56.9359C132.419 60.0989 126.013 58.7794 121.094 53.9284C116.176 49.0773 114.68 42.6392 117.756 39.4986C120.833 36.358 127.238 37.6775 132.146 42.5061Z" fill="#C3A78E"/>
</g>
<g filter="url(#filter12_b_4176_145)">
<path d="M166.699 36.5576C163.624 42.3834 164.22 48.5547 167.986 50.3207C171.753 52.0868 177.394 48.7932 180.459 42.9467C183.524 37.1001 182.939 30.9497 179.172 29.1836C175.406 27.4175 169.764 30.7111 166.699 36.5576Z" fill="#C3A78E"/>
</g>
<g filter="url(#filter13_b_4176_145)">
<path d="M144.843 25.8885C147.265 32.662 145.708 39.4233 141.211 41.0671C136.715 42.7108 131.339 38.4246 128.894 31.6619C126.449 24.8992 128.029 18.1271 132.392 16.5486C136.755 14.9701 142.398 19.1258 144.843 25.8885Z" fill="#C3A78E"/>
</g>
<g filter="url(#filter14_b_4176_145)">
<path d="M148.825 25.0889C148.901 32.2749 152.579 38.231 157.139 38.3115C161.699 38.3919 165.267 32.6782 165.191 25.4923C165.115 18.3063 161.437 12.3502 156.898 12.2592C152.359 12.1683 148.759 17.8701 148.825 25.0889Z" fill="#C3A78E"/>
</g>
</g>
<defs>
<filter id="filter0_b_4176_145" x="112.818" y="392.037" width="278.148" height="232.29" filterUnits="userSpaceOnUse" color-interpolation-filters="sRGB">
<feFlood flood-opacity="0" result="BackgroundImageFix"/>
<feGaussianBlur in="BackgroundImageFix" stdDeviation="12.5"/>
<feComposite in2="SourceAlpha" operator="in" result="effect1_backgroundBlur_4176_145"/>
<feBlend mode="normal" in="SourceGraphic" in2="effect1_backgroundBlur_4176_145" result="shape"/>
</filter>
<filter id="filter1_b_4176_145" x="22.7915" y="360.45" width="160.512" height="157.316" filterUnits="userSpaceOnUse" color-interpolation-filters="sRGB">
<feFlood flood-opacity="0" result="BackgroundImageFix"/>
<feGaussianBlur in="BackgroundImageFix" stdDeviation="12.5"/>
<feComposite in2="SourceAlpha" operator="in" result="effect1_backgroundBlur_4176_145"/>
<feBlend mode="normal" in="SourceGraphic" in2="effect1_backgroundBlur_4176_145" result="shape"/>
</filter>
<filter id="filter2_b_4176_145" x="275.959" y="304.048" width="140.926" height="166.282" filterUnits="userSpaceOnUse" color-interpolation-filters="sRGB">
<feFlood flood-opacity="0" result="BackgroundImageFix"/>
<feGaussianBlur in="BackgroundImageFix" stdDeviation="12.5"/>
<feComposite in2="SourceAlpha" operator="in" result="effect1_backgroundBlur_4176_145"/>
<feBlend mode="normal" in="SourceGraphic" in2="effect1_backgroundBlur_4176_145" result="shape"/>
</filter>
<filter id="filter3_b_4176_145" x="80.1062" y="245.971" width="146.264" height="180.595" filterUnits="userSpaceOnUse" color-interpolation-filters="sRGB">
<feFlood flood-opacity="0" result="BackgroundImageFix"/>
<feGaussianBlur in="BackgroundImageFix" stdDeviation="12.5"/>
<feComposite in2="SourceAlpha" operator="in" result="effect1_backgroundBlur_4176_145"/>
<feBlend mode="normal" in="SourceGraphic" in2="effect1_backgroundBlur_4176_145" result="shape"/>
</filter>
<filter id="filter4_b_4176_145" x="189.895" y="221.644" width="135.559" height="185.753" filterUnits="userSpaceOnUse" color-interpolation-filters="sRGB">
<feFlood flood-opacity="0" result="BackgroundImageFix"/>
<feGaussianBlur in="BackgroundImageFix" stdDeviation="12.5"/>
<feComposite in2="SourceAlpha" operator="in" result="effect1_backgroundBlur_4176_145"/>
<feBlend mode="normal" in="SourceGraphic" in2="effect1_backgroundBlur_4176_145" result="shape"/>
</filter>
<filter id="filter5_b_4176_145" x="190.02" y="106.152" width="77.1936" height="77.9028" filterUnits="userSpaceOnUse" color-interpolation-filters="sRGB">
<feFlood flood-opacity="0" result="BackgroundImageFix"/>
<feGaussianBlur in="BackgroundImageFix" stdDeviation="12.5"/>
<feComposite in2="SourceAlpha" operator="in" result="effect1_backgroundBlur_4176_145"/>
<feBlend mode="normal" in="SourceGraphic" in2="effect1_backgroundBlur_4176_145" result="shape"/>
</filter>
<filter id="filter6_b_4176_145" x="199.864" y="86.9336" width="61.9912" height="67.3104" filterUnits="userSpaceOnUse" color-interpolation-filters="sRGB">
<feFlood flood-opacity="0" result="BackgroundImageFix"/>
<feGaussianBlur in="BackgroundImageFix" stdDeviation="12.5"/>
<feComposite in2="SourceAlpha" operator="in" result="effect1_backgroundBlur_4176_145"/>
<feBlend mode="normal" in="SourceGraphic" in2="effect1_backgroundBlur_4176_145" result="shape"/>
</filter>
<filter id="filter7_b_4176_145" x="218.523" y="116.807" width="67.0615" height="60.7994" filterUnits="userSpaceOnUse" color-interpolation-filters="sRGB">
<feFlood flood-opacity="0" result="BackgroundImageFix"/>
<feGaussianBlur in="BackgroundImageFix" stdDeviation="12.5"/>
<feComposite in2="SourceAlpha" operator="in" result="effect1_backgroundBlur_4176_145"/>
<feBlend mode="normal" in="SourceGraphic" in2="effect1_backgroundBlur_4176_145" result="shape"/>
</filter>
<filter id="filter8_b_4176_145" x="213.809" y="87.433" width="65.3525" height="66.0148" filterUnits="userSpaceOnUse" color-interpolation-filters="sRGB">
<feFlood flood-opacity="0" result="BackgroundImageFix"/>
<feGaussianBlur in="BackgroundImageFix" stdDeviation="12.5"/>
<feComposite in2="SourceAlpha" operator="in" result="effect1_backgroundBlur_4176_145"/>
<feBlend mode="normal" in="SourceGraphic" in2="effect1_backgroundBlur_4176_145" result="shape"/>
</filter>
<filter id="filter9_b_4176_145" x="221.967" y="100.044" width="67.1311" height="63.7465" filterUnits="userSpaceOnUse" color-interpolation-filters="sRGB">
<feFlood flood-opacity="0" result="BackgroundImageFix"/>
<feGaussianBlur in="BackgroundImageFix" stdDeviation="12.5"/>
<feComposite in2="SourceAlpha" operator="in" result="effect1_backgroundBlur_4176_145"/>
<feBlend mode="normal" in="SourceGraphic" in2="effect1_backgroundBlur_4176_145" result="shape"/>
</filter>
<filter id="filter10_b_4176_145" x="107.538" y="19.7856" width="93.896" height="84.5811" filterUnits="userSpaceOnUse" color-interpolation-filters="sRGB">
<feFlood flood-opacity="0" result="BackgroundImageFix"/>
<feGaussianBlur in="BackgroundImageFix" stdDeviation="12.5"/>
<feComposite in2="SourceAlpha" operator="in" result="effect1_backgroundBlur_4176_145"/>
<feBlend mode="normal" in="SourceGraphic" in2="effect1_backgroundBlur_4176_145" result="shape"/>
</filter>
<filter id="filter11_b_4176_145" x="91.157" y="12.796" width="70.9165" height="70.8582" filterUnits="userSpaceOnUse" color-interpolation-filters="sRGB">
<feFlood flood-opacity="0" result="BackgroundImageFix"/>
<feGaussianBlur in="BackgroundImageFix" stdDeviation="12.5"/>
<feComposite in2="SourceAlpha" operator="in" result="effect1_backgroundBlur_4176_145"/>
<feBlend mode="normal" in="SourceGraphic" in2="effect1_backgroundBlur_4176_145" result="shape"/>
</filter>
<filter id="filter12_b_4176_145" x="139.729" y="3.70703" width="67.6968" height="72.0903" filterUnits="userSpaceOnUse" color-interpolation-filters="sRGB">
<feFlood flood-opacity="0" result="BackgroundImageFix"/>
<feGaussianBlur in="BackgroundImageFix" stdDeviation="12.5"/>
<feComposite in2="SourceAlpha" operator="in" result="effect1_backgroundBlur_4176_145"/>
<feBlend mode="normal" in="SourceGraphic" in2="effect1_backgroundBlur_4176_145" result="shape"/>
</filter>
<filter id="filter13_b_4176_145" x="102.743" y="-8.78589" width="68.2368" height="75.2045" filterUnits="userSpaceOnUse" color-interpolation-filters="sRGB">
<feFlood flood-opacity="0" result="BackgroundImageFix"/>
<feGaussianBlur in="BackgroundImageFix" stdDeviation="12.5"/>
<feComposite in2="SourceAlpha" operator="in" result="effect1_backgroundBlur_4176_145"/>
<feBlend mode="normal" in="SourceGraphic" in2="effect1_backgroundBlur_4176_145" result="shape"/>
</filter>
<filter id="filter14_b_4176_145" x="123.824" y="-12.7418" width="66.3679" height="76.0541" filterUnits="userSpaceOnUse" color-interpolation-filters="sRGB">
<feFlood flood-opacity="0" result="BackgroundImageFix"/>
<feGaussianBlur in="BackgroundImageFix" stdDeviation="12.5"/>
<feComposite in2="SourceAlpha" operator="in" result="effect1_backgroundBlur_4176_145"/>
<feBlend mode="normal" in="SourceGraphic" in2="effect1_backgroundBlur_4176_145" result="shape"/>
</filter>
</defs>
</svg>
