<svg width="801" height="616" viewBox="0 0 801 616" fill="none" xmlns="http://www.w3.org/2000/svg">
<g opacity="0.2">
<g filter="url(#filter0_b_4176_146)">
<path d="M114.258 373.926L114.26 373.925C132.209 364.636 147.616 354.233 161.568 344.156C166.313 340.729 170.871 337.355 175.297 334.078C183.945 327.675 192.091 321.644 200.157 316.315C224.353 300.327 246.974 291.253 277.143 299.327C306.774 309.062 321.015 329.116 332.818 355.889C336.852 365.038 340.558 374.869 344.498 385.317C346.363 390.266 348.281 395.352 350.311 400.571C356.6 416.741 363.898 433.996 373.866 451.722L373.873 451.735L373.88 451.747C403.353 502.771 409.023 543.621 401.072 571.344C393.172 598.889 371.765 613.822 345.773 613.394C319.762 612.966 300.329 595.933 280.065 576.266C278.518 574.765 276.966 573.248 275.407 571.724C256.816 553.552 237.14 534.319 211.132 527.115C185.533 519.022 158.879 524.431 133.694 529.541C131.463 529.994 129.244 530.444 127.039 530.883C99.565 536.343 74.187 539.968 52.0729 525.843C29.9339 511.702 19.8318 487.281 27.8126 459.73C35.8412 432.014 62.309 400.763 114.258 373.926Z" stroke="#D2D2DB" stroke-width="5"/>
</g>
<g filter="url(#filter1_b_4176_146)">
<path d="M140.581 208.291L140.582 208.294C150.676 236.762 152.424 265.126 147.184 287.905C141.935 310.719 129.795 327.578 112.389 333.873C94.9815 340.169 75.084 335.037 56.7764 320.853C38.4886 306.685 22.0797 283.665 11.9835 254.971C1.88625 226.274 0.139216 197.854 5.37931 175.104C10.6268 152.322 22.7633 135.578 40.1613 129.391C57.572 123.199 77.4756 128.386 95.7868 142.573C114.077 156.743 130.485 179.709 140.581 208.291Z" stroke="#D2D2DB" stroke-width="5"/>
</g>
<g filter="url(#filter2_b_4176_146)">
<path d="M444.751 296.987L444.757 296.983C468.152 279.784 494.108 270.172 516.966 268.38C539.881 266.584 559.262 272.648 570.197 286.216C581.102 299.746 582.238 318.851 574.566 339.218C566.902 359.564 550.535 380.818 527.127 398.027C503.731 415.226 477.775 424.838 454.917 426.629C432.002 428.425 412.621 422.361 401.686 408.794C390.782 395.264 389.645 376.108 397.318 355.713C404.982 335.342 421.348 314.09 444.751 296.987Z" stroke="#D2D2DB" stroke-width="5"/>
</g>
<g filter="url(#filter3_b_4176_146)">
<path d="M307.285 123.62C303.789 155.111 292.437 182.612 276.856 201.634C261.265 220.669 241.66 230.996 221.515 228.902C201.397 226.812 184.809 212.632 174.013 190.744C163.222 168.865 158.393 139.558 161.782 108.045C165.168 76.5593 176.519 49.0546 191.968 30.028C207.437 10.9765 226.762 0.680198 246.216 2.76677C265.679 4.8544 282.612 19.0443 293.911 40.9653C305.194 62.8532 310.668 92.1495 307.285 123.62Z" stroke="#D2D2DB" stroke-width="5"/>
</g>
<g filter="url(#filter4_b_4176_146)">
<path d="M360.89 269.393C343.796 260.674 333.456 241.478 330.868 216.865C328.284 192.298 333.499 162.741 347.086 134.135C360.778 105.42 380.206 83.3789 400.494 70.8098C420.801 58.2281 441.645 55.2928 458.622 64.0033C475.61 72.719 485.9 91.9138 488.463 116.531C491.021 141.1 485.805 170.658 472.219 199.264C458.633 227.87 439.309 249.912 419.073 262.508C398.82 275.115 377.975 278.107 360.89 269.393Z" stroke="#D2D2DB" stroke-width="5"/>
</g>
</g>
<g filter="url(#filter5_b_4176_146)">
<path d="M743.322 538.836C735.661 542.253 736.99 550.32 732.827 559.859C726.703 573.863 732.259 581.525 739.322 580.722C746.385 579.918 748.677 570.517 755.555 567.81C762.335 564.847 770.726 569.799 776.271 565.448C781.815 561.098 780.176 551.789 765.792 546.287C756.05 542.432 751.147 535.846 743.322 538.836Z" fill="#ECECF9"/>
</g>
<g filter="url(#filter6_b_4176_146)">
<path d="M722.393 540.854C729.179 544.998 732.569 551.898 729.936 556.27C727.303 560.643 719.727 560.829 712.905 556.639C706.083 552.449 702.711 545.573 705.362 541.223C708.014 536.873 715.59 536.687 722.393 540.854Z" fill="#ECECF9"/>
</g>
<g filter="url(#filter7_b_4176_146)">
<path d="M759.844 525.1C757.896 532.482 760.183 539.292 764.897 540.301C769.611 541.309 775.118 536.116 777.049 528.714C778.979 521.312 776.71 514.522 771.996 513.513C767.282 512.505 761.775 517.699 759.844 525.1Z" fill="#ECECF9"/>
</g>
<g filter="url(#filter8_b_4176_146)">
<path d="M732.379 518.773C736.886 525.786 736.896 533.826 732.25 536.858C727.604 539.89 720.414 536.457 715.885 529.463C711.357 522.468 711.369 514.409 715.881 511.486C720.393 508.563 727.851 511.778 732.379 518.773Z" fill="#ECECF9"/>
</g>
<g filter="url(#filter9_b_4176_146)">
<path d="M736.666 516.829C738.631 524.921 744.341 530.683 749.51 529.581C754.679 528.479 757.212 521.095 755.246 513.003C753.281 504.911 747.571 499.149 742.423 500.234C737.276 501.318 734.703 508.697 736.666 516.829Z" fill="#ECECF9"/>
</g>
<defs>
<filter id="filter0_b_4176_146" x="-2.39795" y="268.825" width="434.233" height="372.078" filterUnits="userSpaceOnUse" color-interpolation-filters="sRGB">
<feFlood flood-opacity="0" result="BackgroundImageFix"/>
<feGaussianBlur in="BackgroundImageFix" stdDeviation="12.5"/>
<feComposite in2="SourceAlpha" operator="in" result="effect1_backgroundBlur_4176_146"/>
<feBlend mode="normal" in="SourceGraphic" in2="effect1_backgroundBlur_4176_146" result="shape"/>
</filter>
<filter id="filter1_b_4176_146" x="-25" y="99.3108" width="202.563" height="264.719" filterUnits="userSpaceOnUse" color-interpolation-filters="sRGB">
<feFlood flood-opacity="0" result="BackgroundImageFix"/>
<feGaussianBlur in="BackgroundImageFix" stdDeviation="12.5"/>
<feComposite in2="SourceAlpha" operator="in" result="effect1_backgroundBlur_4176_146"/>
<feBlend mode="normal" in="SourceGraphic" in2="effect1_backgroundBlur_4176_146" result="shape"/>
</filter>
<filter id="filter2_b_4176_146" x="364.884" y="240.573" width="242.116" height="213.864" filterUnits="userSpaceOnUse" color-interpolation-filters="sRGB">
<feFlood flood-opacity="0" result="BackgroundImageFix"/>
<feGaussianBlur in="BackgroundImageFix" stdDeviation="12.5"/>
<feComposite in2="SourceAlpha" operator="in" result="effect1_backgroundBlur_4176_146"/>
<feBlend mode="normal" in="SourceGraphic" in2="effect1_backgroundBlur_4176_146" result="shape"/>
</filter>
<filter id="filter3_b_4176_146" x="133.213" y="-25" width="202.563" height="281.67" filterUnits="userSpaceOnUse" color-interpolation-filters="sRGB">
<feFlood flood-opacity="0" result="BackgroundImageFix"/>
<feGaussianBlur in="BackgroundImageFix" stdDeviation="12.5"/>
<feComposite in2="SourceAlpha" operator="in" result="effect1_backgroundBlur_4176_146"/>
<feBlend mode="normal" in="SourceGraphic" in2="effect1_backgroundBlur_4176_146" result="shape"/>
</filter>
<filter id="filter4_b_4176_146" x="302.728" y="31.5049" width="213.864" height="270.369" filterUnits="userSpaceOnUse" color-interpolation-filters="sRGB">
<feFlood flood-opacity="0" result="BackgroundImageFix"/>
<feGaussianBlur in="BackgroundImageFix" stdDeviation="12.5"/>
<feComposite in2="SourceAlpha" operator="in" result="effect1_backgroundBlur_4176_146"/>
<feBlend mode="normal" in="SourceGraphic" in2="effect1_backgroundBlur_4176_146" result="shape"/>
</filter>
<filter id="filter5_b_4176_146" x="705.194" y="513.08" width="99.0225" height="92.6995" filterUnits="userSpaceOnUse" color-interpolation-filters="sRGB">
<feFlood flood-opacity="0" result="BackgroundImageFix"/>
<feGaussianBlur in="BackgroundImageFix" stdDeviation="12.5"/>
<feComposite in2="SourceAlpha" operator="in" result="effect1_backgroundBlur_4176_146"/>
<feBlend mode="normal" in="SourceGraphic" in2="effect1_backgroundBlur_4176_146" result="shape"/>
</filter>
<filter id="filter6_b_4176_146" x="679.457" y="512.841" width="76.3718" height="71.8281" filterUnits="userSpaceOnUse" color-interpolation-filters="sRGB">
<feFlood flood-opacity="0" result="BackgroundImageFix"/>
<feGaussianBlur in="BackgroundImageFix" stdDeviation="12.5"/>
<feComposite in2="SourceAlpha" operator="in" result="effect1_backgroundBlur_4176_146"/>
<feBlend mode="normal" in="SourceGraphic" in2="effect1_backgroundBlur_4176_146" result="shape"/>
</filter>
<filter id="filter7_b_4176_146" x="734.148" y="488.388" width="68.5889" height="77.0378" filterUnits="userSpaceOnUse" color-interpolation-filters="sRGB">
<feFlood flood-opacity="0" result="BackgroundImageFix"/>
<feGaussianBlur in="BackgroundImageFix" stdDeviation="12.5"/>
<feComposite in2="SourceAlpha" operator="in" result="effect1_backgroundBlur_4176_146"/>
<feBlend mode="normal" in="SourceGraphic" in2="effect1_backgroundBlur_4176_146" result="shape"/>
</filter>
<filter id="filter8_b_4176_146" x="687.493" y="485.408" width="73.2544" height="77.5574" filterUnits="userSpaceOnUse" color-interpolation-filters="sRGB">
<feFlood flood-opacity="0" result="BackgroundImageFix"/>
<feGaussianBlur in="BackgroundImageFix" stdDeviation="12.5"/>
<feComposite in2="SourceAlpha" operator="in" result="effect1_backgroundBlur_4176_146"/>
<feBlend mode="normal" in="SourceGraphic" in2="effect1_backgroundBlur_4176_146" result="shape"/>
</filter>
<filter id="filter9_b_4176_146" x="711.007" y="475.103" width="69.9041" height="79.6135" filterUnits="userSpaceOnUse" color-interpolation-filters="sRGB">
<feFlood flood-opacity="0" result="BackgroundImageFix"/>
<feGaussianBlur in="BackgroundImageFix" stdDeviation="12.5"/>
<feComposite in2="SourceAlpha" operator="in" result="effect1_backgroundBlur_4176_146"/>
<feBlend mode="normal" in="SourceGraphic" in2="effect1_backgroundBlur_4176_146" result="shape"/>
</filter>
</defs>
</svg>
