<svg width="635" height="657" viewBox="0 0 635 657" fill="none" xmlns="http://www.w3.org/2000/svg">
<g opacity="0.3">
<g filter="url(#filter0_b_4176_148)">
<path d="M308.726 316.409C258.97 288.307 220.185 328.28 151.085 344.137C49.5894 367.354 30.1525 428.825 63.1756 464.243C96.1986 499.66 156.957 474.112 199.651 500.804C243.353 525.92 250.24 591.925 296.528 604.657C342.816 617.388 387.147 570.686 358.98 469.636C340.612 400.676 356.802 347.138 308.726 316.409Z" fill="#E5E5EF"/>
<path d="M151.643 346.574L151.645 346.573C169.092 342.57 184.601 337.049 198.783 331.491C203.612 329.598 208.265 327.711 212.781 325.879C221.598 322.302 229.895 318.936 237.974 316.152C262.192 307.805 283.476 305.044 307.437 318.552C330.573 333.365 338.326 353.591 342.527 379.092C343.963 387.812 344.969 397.04 346.039 406.856C346.547 411.509 347.068 416.294 347.657 421.22C349.479 436.467 351.928 452.875 356.564 470.28L356.567 470.294L356.571 470.308C370.558 520.483 366.391 556.643 353.519 578.548C340.741 600.294 319.24 608.311 297.191 602.246C275.125 596.177 262.284 577.402 249.253 556.071C248.258 554.441 247.261 552.797 246.259 551.144C234.349 531.488 221.696 510.608 200.937 498.659C180.724 486.04 156.622 484.793 133.932 483.618C131.918 483.514 129.914 483.41 127.926 483.299C103.171 481.917 80.7466 479.422 65.0041 462.538C49.2413 445.632 45.9892 422.621 58.8379 400.887C71.774 379.006 101.257 358.1 151.643 346.574Z" stroke="#E5E5EF" stroke-width="5"/>
</g>
<g filter="url(#filter1_b_4176_148)">
<path d="M212.866 209.995C217.668 263.943 193.633 310.466 159.021 313.767C124.409 317.068 92.69 276.339 87.9861 222.01C83.2822 167.681 107.268 121.348 141.831 118.238C176.395 115.129 208.113 155.857 212.866 209.995Z" fill="#E5E5EF"/>
<path d="M210.376 210.214L210.376 210.217C212.741 236.788 207.99 261.418 198.504 279.723C189.003 298.06 174.953 309.736 158.784 311.278C142.611 312.82 126.783 304.11 114.263 287.968C101.759 271.845 92.7941 248.559 90.4768 221.794C88.1592 195.027 92.9245 170.348 102.403 152.068C111.897 133.759 125.916 122.18 142.055 120.728C158.208 119.275 174.03 128.035 186.552 144.181C199.058 160.305 208.035 183.546 210.376 210.214Z" stroke="#E5E5EF" stroke-width="5"/>
</g>
<g filter="url(#filter2_b_4176_148)">
<path d="M450.884 351.214C402.578 370.46 374.551 410.579 388.132 440.477C401.714 470.375 452.466 479.48 500.818 460.057C549.17 440.634 577.151 400.692 563.57 370.794C549.988 340.896 499.236 331.791 450.884 351.214Z" fill="#E5E5EF"/>
<path d="M451.809 353.537L451.816 353.534C475.61 343.976 499.914 341.475 519.834 344.971C539.81 348.477 554.972 357.911 561.294 371.828C567.596 385.702 564.403 402.211 553.373 417.917C542.356 433.605 523.695 448.173 499.886 457.737C476.093 467.295 451.789 469.796 431.868 466.3C411.892 462.794 396.731 453.36 390.408 439.443C384.107 425.57 387.31 409.017 398.347 393.287C409.369 377.577 428.029 363.011 451.809 353.537Z" stroke="#E5E5EF" stroke-width="5"/>
</g>
<g filter="url(#filter3_b_4176_148)">
<path d="M374.235 175.195C354.098 228.288 310.117 260.925 274.689 247.772C239.262 234.619 228.92 181.342 248.868 128.201C268.815 75.059 312.986 42.4705 347.276 55.3309C381.566 68.1913 394.182 122.053 374.235 175.195Z" fill="#E5E5EF"/>
<path d="M371.896 174.312C361.971 200.477 346.21 221.486 328.718 234.31C311.211 247.143 292.238 251.621 275.559 245.428C258.906 239.246 247.868 223.542 243.46 202.47C239.053 181.408 241.37 155.289 251.208 129.079C261.037 102.894 276.798 81.8813 294.18 69.025C311.587 56.1496 330.313 51.6391 346.398 57.6717C362.492 63.7077 373.824 79.497 378.657 100.713C383.481 121.892 381.718 148.142 371.896 174.312Z" stroke="#E5E5EF" stroke-width="5"/>
</g>
<g filter="url(#filter4_b_4176_148)">
<path d="M402.248 190.784C365.905 234.339 357.496 288.951 384.476 312.788C411.456 336.624 462.147 320.573 498.489 277.018C534.831 233.463 543.241 178.851 516.443 155.061C489.646 131.272 438.822 147.086 402.248 190.784Z" fill="#E5E5EF"/>
<path d="M386.131 310.914C373.509 299.762 368.886 281.151 372.089 259.547C375.285 237.989 386.246 213.863 404.167 192.386C422.202 170.839 443.665 156.276 463.757 150.001C483.872 143.719 502.26 145.813 514.784 156.931C527.316 168.057 531.897 186.656 528.671 208.258C525.453 229.813 514.49 253.939 496.57 275.416C478.649 296.894 457.275 311.48 437.221 317.79C417.148 324.105 398.746 322.059 386.131 310.914Z" stroke="#E5E5EF" stroke-width="5"/>
</g>
</g>
<defs>
<filter id="filter0_b_4176_148" x="23.4028" y="281.656" width="369.393" height="350.053" filterUnits="userSpaceOnUse" color-interpolation-filters="sRGB">
<feFlood flood-opacity="0" result="BackgroundImageFix"/>
<feGaussianBlur in="BackgroundImageFix" stdDeviation="12.5"/>
<feComposite in2="SourceAlpha" operator="in" result="effect1_backgroundBlur_4176_148"/>
<feBlend mode="normal" in="SourceGraphic" in2="effect1_backgroundBlur_4176_148" result="shape"/>
</filter>
<filter id="filter1_b_4176_148" x="62.3972" y="93.0718" width="176.08" height="245.882" filterUnits="userSpaceOnUse" color-interpolation-filters="sRGB">
<feFlood flood-opacity="0" result="BackgroundImageFix"/>
<feGaussianBlur in="BackgroundImageFix" stdDeviation="12.5"/>
<feComposite in2="SourceAlpha" operator="in" result="effect1_backgroundBlur_4176_148"/>
<feBlend mode="normal" in="SourceGraphic" in2="effect1_backgroundBlur_4176_148" result="shape"/>
</filter>
<filter id="filter2_b_4176_148" x="359.708" y="315.968" width="232.289" height="179.336" filterUnits="userSpaceOnUse" color-interpolation-filters="sRGB">
<feFlood flood-opacity="0" result="BackgroundImageFix"/>
<feGaussianBlur in="BackgroundImageFix" stdDeviation="12.5"/>
<feComposite in2="SourceAlpha" operator="in" result="effect1_backgroundBlur_4176_148"/>
<feBlend mode="normal" in="SourceGraphic" in2="effect1_backgroundBlur_4176_148" result="shape"/>
</filter>
<filter id="filter3_b_4176_148" x="213.821" y="27.5266" width="194.917" height="248.159" filterUnits="userSpaceOnUse" color-interpolation-filters="sRGB">
<feFlood flood-opacity="0" result="BackgroundImageFix"/>
<feGaussianBlur in="BackgroundImageFix" stdDeviation="12.5"/>
<feComposite in2="SourceAlpha" operator="in" result="effect1_backgroundBlur_4176_148"/>
<feBlend mode="normal" in="SourceGraphic" in2="effect1_backgroundBlur_4176_148" result="shape"/>
</filter>
<filter id="filter4_b_4176_148" x="343.609" y="119.003" width="213.558" height="229.824" filterUnits="userSpaceOnUse" color-interpolation-filters="sRGB">
<feFlood flood-opacity="0" result="BackgroundImageFix"/>
<feGaussianBlur in="BackgroundImageFix" stdDeviation="12.5"/>
<feComposite in2="SourceAlpha" operator="in" result="effect1_backgroundBlur_4176_148"/>
<feBlend mode="normal" in="SourceGraphic" in2="effect1_backgroundBlur_4176_148" result="shape"/>
</filter>
</defs>
</svg>
