<svg width="40" height="40" viewBox="0 0 40 40" fill="none" xmlns="http://www.w3.org/2000/svg">
<path d="M1 20C1 9.50573 9.50884 1 20 1C30.4928 1 39 9.50567 39 20C39 30.4927 30.4927 39 20 39C9.5089 39 1 30.4927 1 20Z" fill="#744037" stroke="#744037" stroke-width="2"/>
<path fill-rule="evenodd" clip-rule="evenodd" d="M12.2698 22.1881C12.3172 22.2041 12.3651 22.2154 12.4129 22.2223C12.465 22.3449 12.5324 22.5034 12.611 22.6888C12.8028 23.1412 13.0613 23.7532 13.3281 24.3915C13.8722 25.6933 14.421 27.0352 14.5423 27.4194C14.6923 27.8942 14.8509 28.217 15.0241 28.4375C15.1136 28.5515 15.2171 28.6509 15.3383 28.7263C15.3993 28.7642 15.4637 28.7953 15.531 28.8185C15.5339 28.8196 15.5369 28.8206 15.5399 28.8215C15.8865 28.9524 16.2026 28.8979 16.4005 28.8313C16.5064 28.7955 16.5921 28.7525 16.6528 28.7176C16.6838 28.6998 16.7099 28.6832 16.7308 28.6691L16.7357 28.6659L19.7974 26.7565L23.334 29.4678C23.3861 29.5078 23.4431 29.5414 23.5034 29.5677C23.9282 29.7531 24.3397 29.8178 24.7267 29.7649C25.1131 29.7121 25.4198 29.5499 25.6481 29.3671C25.8717 29.1882 26.0234 28.9878 26.1178 28.839C26.166 28.7629 26.2022 28.6956 26.2277 28.6442C26.2405 28.6183 26.2508 28.596 26.2588 28.5781L26.269 28.5545L26.2729 28.5452L26.2745 28.5413L26.2752 28.5394L26.2759 28.5377C26.2945 28.4912 26.3088 28.4431 26.3185 28.394L29.5471 12.1165C29.5574 12.0644 29.5625 12.0115 29.5625 11.9584C29.5625 11.4817 29.3829 11.0284 28.9606 10.7534C28.5997 10.5183 28.1975 10.5082 27.9435 10.5275C27.6693 10.5483 27.4161 10.616 27.2463 10.67C27.1579 10.6982 27.0837 10.7253 27.0303 10.746C27.0034 10.7564 26.9814 10.7654 26.9649 10.7722L26.9527 10.7774L8.84613 17.8803L8.84379 17.8812C8.83225 17.8854 8.81743 17.8909 8.79983 17.8977C8.76477 17.9114 8.71779 17.9306 8.66291 17.9555C8.5559 18.004 8.40577 18.0797 8.25171 18.1853C8.00559 18.3538 7.43956 18.8154 7.53487 19.5773C7.61091 20.1852 8.02732 20.5585 8.28103 20.738C8.42033 20.8366 8.55269 20.907 8.64907 20.953C8.69378 20.9742 8.78662 21.0119 8.8269 21.0284L8.83707 21.0325L12.2698 22.1881ZM27.5863 12.2737L27.5838 12.2748C27.5747 12.2787 27.5658 12.2825 27.5565 12.286L9.42804 19.3976C9.41857 19.4013 9.40904 19.4049 9.39944 19.4082L9.38935 19.412C9.37775 19.4166 9.35823 19.4245 9.33373 19.4355C9.31983 19.4418 9.30532 19.4487 9.29053 19.4561C9.31085 19.4676 9.33029 19.4775 9.34757 19.4857C9.36416 19.4936 9.37681 19.499 9.38373 19.5018L12.7882 20.648C12.8506 20.669 12.9086 20.6967 12.962 20.7303L24.2035 14.1496L24.214 14.1434C24.2221 14.1385 24.233 14.1323 24.2459 14.125C24.2714 14.1106 24.3065 14.0913 24.3484 14.07C24.4264 14.0303 24.5513 13.9714 24.6919 13.9279C24.7897 13.8977 25.0784 13.8124 25.3905 13.9125C25.5831 13.9743 25.7826 14.1071 25.9124 14.3321C25.9767 14.4439 26.0111 14.5562 26.0277 14.659C26.0719 14.821 26.0649 14.9809 26.0303 15.1189C25.9558 15.4163 25.7469 15.6483 25.5568 15.8257C25.3939 15.9778 23.2864 18.01 21.2073 20.0161C20.1705 21.0164 19.1444 22.007 18.3772 22.7474L17.8735 23.2338L24.2347 28.1108C24.3806 28.163 24.4669 28.1604 24.5067 28.1548C24.5543 28.1483 24.5932 28.13 24.6329 28.0983C24.6774 28.0628 24.7163 28.0147 24.7453 27.9688L24.7465 27.967L27.8779 12.1796C27.8314 12.1908 27.7844 12.2041 27.7391 12.2185C27.6878 12.2348 27.6455 12.2504 27.6175 12.2612C27.6036 12.2666 27.5936 12.2707 27.5882 12.273L27.5863 12.2737ZM18.4199 25.7004L17.1508 24.7274L16.8434 26.6836L18.4199 25.7004ZM15.9866 22.7967L17.2486 21.5783C18.0157 20.8378 19.0421 19.8472 20.0791 18.8466L21.1326 17.8302L14.0692 21.9651L14.1071 22.0545C14.2996 22.5085 14.5592 23.1231 14.8274 23.7649C15.028 24.2447 15.2377 24.7499 15.4287 25.2177L15.7353 23.2673C15.7649 23.0792 15.8568 22.9165 15.9866 22.7967Z" fill="white"/>
</svg>
