<svg width="40" height="40" viewBox="0 0 40 40" fill="none" xmlns="http://www.w3.org/2000/svg">
<g clip-path="url(#clip0_172_895)">
<circle cx="20" cy="20" r="19" fill="#744037" stroke="#744037" stroke-width="2"/>
<mask id="path-2-outside-1_172_895" maskUnits="userSpaceOnUse" x="8.22919" y="13.354" width="23" height="15" fill="black">
<rect fill="white" x="8.22919" y="13.354" width="23" height="15"/>
<path fill-rule="evenodd" clip-rule="evenodd" d="M30.4546 25.4594C29.956 24.4552 29.2991 23.5379 28.509 22.7427C28.2401 22.4301 27.9249 22.1217 27.6788 21.8809L27.6444 21.8473C27.5174 21.723 27.4126 21.6199 27.3268 21.531C28.407 20.0288 29.3317 18.4203 30.0861 16.7302L30.1165 16.662L30.1379 16.5905C30.237 16.2578 30.3512 15.6252 29.9472 15.0536C29.5297 14.4627 28.8611 14.3561 28.4134 14.3561H26.3535C25.9242 14.3365 25.4989 14.4526 25.1387 14.6886C24.7757 14.9264 24.498 15.2732 24.3452 15.6787C23.9016 16.7353 23.3466 17.7404 22.6902 18.677V16.2631C22.6902 15.9511 22.6608 15.4292 22.3267 14.9886C21.9267 14.4611 21.3482 14.3561 20.9466 14.3561H17.6782C17.2571 14.3464 16.8475 14.497 16.5328 14.778C16.2105 15.0659 16.013 15.4679 15.9822 15.899L15.9792 15.9398V15.9807C15.9792 16.4258 16.1556 16.754 16.2965 16.9605C16.3595 17.0529 16.427 17.1371 16.4696 17.1902L16.4795 17.2025C16.5249 17.2591 16.5552 17.297 16.5857 17.3384C16.6657 17.4473 16.7809 17.6152 16.8135 18.0498V19.4C16.25 18.4737 15.6556 17.2411 15.2084 15.9247L15.2015 15.9045L15.1939 15.8845C15.0824 15.5924 14.9035 15.1675 14.5453 14.8423C14.1268 14.4624 13.6318 14.3561 13.1817 14.3561H11.0917C10.6363 14.3561 10.0873 14.4627 9.67765 14.8948C9.27481 15.3198 9.22919 15.829 9.22919 16.0997V16.2218L9.25489 16.3411C9.83377 19.0279 11.0266 21.5441 12.7395 23.6927C13.5161 24.9174 14.5685 25.944 15.8128 26.69C17.077 27.4481 18.5032 27.8949 19.9739 27.9937L20.0122 27.9963H20.0507C20.716 27.9963 21.4097 27.9389 21.9313 27.5913C22.6349 27.1224 22.6902 26.4023 22.6902 26.0434V25.0004C22.8707 25.1463 23.0948 25.3428 23.369 25.6069C23.7006 25.9387 23.9646 26.2263 24.191 26.4773L24.3118 26.6117L24.3126 26.6124C24.4884 26.8082 24.6615 27.001 24.819 27.1594C25.0171 27.3585 25.2613 27.5779 25.5683 27.74C25.9007 27.9155 26.2496 27.9949 26.6202 27.9949H28.7116C29.1521 27.9949 29.7841 27.8907 30.2284 27.3756C30.7126 26.8143 30.6756 26.1262 30.5234 25.6318L30.4959 25.5428L30.4546 25.4594ZM25.2119 25.5562C24.9765 25.2952 24.6926 24.9859 24.3338 24.6272L24.3309 24.6242C23.0878 23.4257 22.5069 23.2169 22.0963 23.2169C21.8778 23.2169 21.6361 23.2415 21.4792 23.4368C21.4052 23.529 21.3663 23.6403 21.3445 23.7563C21.3227 23.872 21.3152 24.008 21.3152 24.1628V26.0434C21.3152 26.277 21.2768 26.3751 21.1688 26.4471C21.0249 26.543 20.7173 26.6207 20.0584 26.6213C18.8077 26.536 17.5951 26.1555 16.5199 25.5108C15.4425 24.8649 14.534 23.9721 13.8692 22.9062L13.862 22.8947L13.8534 22.884C12.2573 20.8973 11.145 18.5667 10.6045 16.0765C10.6074 15.9565 10.6334 15.8853 10.6755 15.8408C10.719 15.795 10.8242 15.7311 11.0917 15.7311H13.1817C13.4142 15.7311 13.5345 15.7817 13.6211 15.8603C13.7193 15.9495 13.8044 16.1008 13.9079 16.3711C14.4208 17.8799 15.1145 19.2909 15.7714 20.3284C16.0998 20.8469 16.4229 21.2786 16.714 21.5836C16.8594 21.7359 17.0019 21.8621 17.1379 21.9518C17.2696 22.0386 17.4188 22.1071 17.5723 22.1071C17.6533 22.1071 17.748 22.0987 17.8392 22.0583C17.9374 22.015 18.0135 21.9425 18.0673 21.8455C18.1624 21.6739 18.1885 21.4197 18.1885 21.0866V18.0032L18.188 17.996C18.1405 17.2459 17.914 16.8239 17.6935 16.5239C17.6452 16.4582 17.5975 16.3988 17.5558 16.3468L17.5444 16.3326C17.4986 16.2755 17.4622 16.2293 17.4322 16.1855C17.3774 16.1051 17.3561 16.049 17.3543 15.9889C17.3615 15.9176 17.3951 15.8515 17.4487 15.8036C17.5043 15.7539 17.5771 15.7281 17.6517 15.7311H20.9466C21.1355 15.7311 21.1991 15.7772 21.2311 15.8195C21.2763 15.8791 21.3152 16.003 21.3152 16.2631V20.4144C21.3152 20.9074 21.5425 21.2413 21.8726 21.2413C22.2525 21.2413 22.5263 21.0108 23.0051 20.532L23.0131 20.524L23.0203 20.5152C24.0935 19.2065 24.9706 17.7484 25.6235 16.1868L25.6276 16.1751C25.6768 16.0371 25.7696 15.919 25.8922 15.8387C26.0146 15.7585 26.16 15.7205 26.3061 15.7306L26.3141 15.7311H28.4134C28.6996 15.7311 28.7939 15.804 28.8243 15.8471C28.8567 15.893 28.8792 15.9912 28.8242 16.1839C28.0715 17.8673 27.1408 19.4652 26.0482 20.9507L26.0413 20.9612C25.9353 21.1234 25.8189 21.3029 25.8021 21.509C25.784 21.7302 25.8798 21.9314 26.0473 22.147C26.1694 22.3275 26.4212 22.574 26.6767 22.8241L26.7008 22.8477C26.9686 23.1098 27.2587 23.3938 27.4917 23.6688L27.4979 23.676L27.5047 23.6828C28.1991 24.3755 28.7765 25.1762 29.2144 26.0536C29.2843 26.2925 29.2415 26.4146 29.1871 26.4776C29.1236 26.5513 28.9812 26.6199 28.7116 26.6199H26.6202C26.4568 26.6199 26.3308 26.5877 26.2103 26.5241C26.0849 26.4579 25.9558 26.3524 25.7939 26.1897C25.6636 26.0586 25.5211 25.9001 25.3473 25.7067C25.3042 25.6588 25.2592 25.6086 25.2119 25.5562Z"/>
</mask>
<path fill-rule="evenodd" clip-rule="evenodd" d="M30.4546 25.4594C29.956 24.4552 29.2991 23.5379 28.509 22.7427C28.2401 22.4301 27.9249 22.1217 27.6788 21.8809L27.6444 21.8473C27.5174 21.723 27.4126 21.6199 27.3268 21.531C28.407 20.0288 29.3317 18.4203 30.0861 16.7302L30.1165 16.662L30.1379 16.5905C30.237 16.2578 30.3512 15.6252 29.9472 15.0536C29.5297 14.4627 28.8611 14.3561 28.4134 14.3561H26.3535C25.9242 14.3365 25.4989 14.4526 25.1387 14.6886C24.7757 14.9264 24.498 15.2732 24.3452 15.6787C23.9016 16.7353 23.3466 17.7404 22.6902 18.677V16.2631C22.6902 15.9511 22.6608 15.4292 22.3267 14.9886C21.9267 14.4611 21.3482 14.3561 20.9466 14.3561H17.6782C17.2571 14.3464 16.8475 14.497 16.5328 14.778C16.2105 15.0659 16.013 15.4679 15.9822 15.899L15.9792 15.9398V15.9807C15.9792 16.4258 16.1556 16.754 16.2965 16.9605C16.3595 17.0529 16.427 17.1371 16.4696 17.1902L16.4795 17.2025C16.5249 17.2591 16.5552 17.297 16.5857 17.3384C16.6657 17.4473 16.7809 17.6152 16.8135 18.0498V19.4C16.25 18.4737 15.6556 17.2411 15.2084 15.9247L15.2015 15.9045L15.1939 15.8845C15.0824 15.5924 14.9035 15.1675 14.5453 14.8423C14.1268 14.4624 13.6318 14.3561 13.1817 14.3561H11.0917C10.6363 14.3561 10.0873 14.4627 9.67765 14.8948C9.27481 15.3198 9.22919 15.829 9.22919 16.0997V16.2218L9.25489 16.3411C9.83377 19.0279 11.0266 21.5441 12.7395 23.6927C13.5161 24.9174 14.5685 25.944 15.8128 26.69C17.077 27.4481 18.5032 27.8949 19.9739 27.9937L20.0122 27.9963H20.0507C20.716 27.9963 21.4097 27.9389 21.9313 27.5913C22.6349 27.1224 22.6902 26.4023 22.6902 26.0434V25.0004C22.8707 25.1463 23.0948 25.3428 23.369 25.6069C23.7006 25.9387 23.9646 26.2263 24.191 26.4773L24.3118 26.6117L24.3126 26.6124C24.4884 26.8082 24.6615 27.001 24.819 27.1594C25.0171 27.3585 25.2613 27.5779 25.5683 27.74C25.9007 27.9155 26.2496 27.9949 26.6202 27.9949H28.7116C29.1521 27.9949 29.7841 27.8907 30.2284 27.3756C30.7126 26.8143 30.6756 26.1262 30.5234 25.6318L30.4959 25.5428L30.4546 25.4594ZM25.2119 25.5562C24.9765 25.2952 24.6926 24.9859 24.3338 24.6272L24.3309 24.6242C23.0878 23.4257 22.5069 23.2169 22.0963 23.2169C21.8778 23.2169 21.6361 23.2415 21.4792 23.4368C21.4052 23.529 21.3663 23.6403 21.3445 23.7563C21.3227 23.872 21.3152 24.008 21.3152 24.1628V26.0434C21.3152 26.277 21.2768 26.3751 21.1688 26.4471C21.0249 26.543 20.7173 26.6207 20.0584 26.6213C18.8077 26.536 17.5951 26.1555 16.5199 25.5108C15.4425 24.8649 14.534 23.9721 13.8692 22.9062L13.862 22.8947L13.8534 22.884C12.2573 20.8973 11.145 18.5667 10.6045 16.0765C10.6074 15.9565 10.6334 15.8853 10.6755 15.8408C10.719 15.795 10.8242 15.7311 11.0917 15.7311H13.1817C13.4142 15.7311 13.5345 15.7817 13.6211 15.8603C13.7193 15.9495 13.8044 16.1008 13.9079 16.3711C14.4208 17.8799 15.1145 19.2909 15.7714 20.3284C16.0998 20.8469 16.4229 21.2786 16.714 21.5836C16.8594 21.7359 17.0019 21.8621 17.1379 21.9518C17.2696 22.0386 17.4188 22.1071 17.5723 22.1071C17.6533 22.1071 17.748 22.0987 17.8392 22.0583C17.9374 22.015 18.0135 21.9425 18.0673 21.8455C18.1624 21.6739 18.1885 21.4197 18.1885 21.0866V18.0032L18.188 17.996C18.1405 17.2459 17.914 16.8239 17.6935 16.5239C17.6452 16.4582 17.5975 16.3988 17.5558 16.3468L17.5444 16.3326C17.4986 16.2755 17.4622 16.2293 17.4322 16.1855C17.3774 16.1051 17.3561 16.049 17.3543 15.9889C17.3615 15.9176 17.3951 15.8515 17.4487 15.8036C17.5043 15.7539 17.5771 15.7281 17.6517 15.7311H20.9466C21.1355 15.7311 21.1991 15.7772 21.2311 15.8195C21.2763 15.8791 21.3152 16.003 21.3152 16.2631V20.4144C21.3152 20.9074 21.5425 21.2413 21.8726 21.2413C22.2525 21.2413 22.5263 21.0108 23.0051 20.532L23.0131 20.524L23.0203 20.5152C24.0935 19.2065 24.9706 17.7484 25.6235 16.1868L25.6276 16.1751C25.6768 16.0371 25.7696 15.919 25.8922 15.8387C26.0146 15.7585 26.16 15.7205 26.3061 15.7306L26.3141 15.7311H28.4134C28.6996 15.7311 28.7939 15.804 28.8243 15.8471C28.8567 15.893 28.8792 15.9912 28.8242 16.1839C28.0715 17.8673 27.1408 19.4652 26.0482 20.9507L26.0413 20.9612C25.9353 21.1234 25.8189 21.3029 25.8021 21.509C25.784 21.7302 25.8798 21.9314 26.0473 22.147C26.1694 22.3275 26.4212 22.574 26.6767 22.8241L26.7008 22.8477C26.9686 23.1098 27.2587 23.3938 27.4917 23.6688L27.4979 23.676L27.5047 23.6828C28.1991 24.3755 28.7765 25.1762 29.2144 26.0536C29.2843 26.2925 29.2415 26.4146 29.1871 26.4776C29.1236 26.5513 28.9812 26.6199 28.7116 26.6199H26.6202C26.4568 26.6199 26.3308 26.5877 26.2103 26.5241C26.0849 26.4579 25.9558 26.3524 25.7939 26.1897C25.6636 26.0586 25.5211 25.9001 25.3473 25.7067C25.3042 25.6588 25.2592 25.6086 25.2119 25.5562Z" fill="white"/>
<path fill-rule="evenodd" clip-rule="evenodd" d="M30.4546 25.4594C29.956 24.4552 29.2991 23.5379 28.509 22.7427C28.2401 22.4301 27.9249 22.1217 27.6788 21.8809L27.6444 21.8473C27.5174 21.723 27.4126 21.6199 27.3268 21.531C28.407 20.0288 29.3317 18.4203 30.0861 16.7302L30.1165 16.662L30.1379 16.5905C30.237 16.2578 30.3512 15.6252 29.9472 15.0536C29.5297 14.4627 28.8611 14.3561 28.4134 14.3561H26.3535C25.9242 14.3365 25.4989 14.4526 25.1387 14.6886C24.7757 14.9264 24.498 15.2732 24.3452 15.6787C23.9016 16.7353 23.3466 17.7404 22.6902 18.677V16.2631C22.6902 15.9511 22.6608 15.4292 22.3267 14.9886C21.9267 14.4611 21.3482 14.3561 20.9466 14.3561H17.6782C17.2571 14.3464 16.8475 14.497 16.5328 14.778C16.2105 15.0659 16.013 15.4679 15.9822 15.899L15.9792 15.9398V15.9807C15.9792 16.4258 16.1556 16.754 16.2965 16.9605C16.3595 17.0529 16.427 17.1371 16.4696 17.1902L16.4795 17.2025C16.5249 17.2591 16.5552 17.297 16.5857 17.3384C16.6657 17.4473 16.7809 17.6152 16.8135 18.0498V19.4C16.25 18.4737 15.6556 17.2411 15.2084 15.9247L15.2015 15.9045L15.1939 15.8845C15.0824 15.5924 14.9035 15.1675 14.5453 14.8423C14.1268 14.4624 13.6318 14.3561 13.1817 14.3561H11.0917C10.6363 14.3561 10.0873 14.4627 9.67765 14.8948C9.27481 15.3198 9.22919 15.829 9.22919 16.0997V16.2218L9.25489 16.3411C9.83377 19.0279 11.0266 21.5441 12.7395 23.6927C13.5161 24.9174 14.5685 25.944 15.8128 26.69C17.077 27.4481 18.5032 27.8949 19.9739 27.9937L20.0122 27.9963H20.0507C20.716 27.9963 21.4097 27.9389 21.9313 27.5913C22.6349 27.1224 22.6902 26.4023 22.6902 26.0434V25.0004C22.8707 25.1463 23.0948 25.3428 23.369 25.6069C23.7006 25.9387 23.9646 26.2263 24.191 26.4773L24.3118 26.6117L24.3126 26.6124C24.4884 26.8082 24.6615 27.001 24.819 27.1594C25.0171 27.3585 25.2613 27.5779 25.5683 27.74C25.9007 27.9155 26.2496 27.9949 26.6202 27.9949H28.7116C29.1521 27.9949 29.7841 27.8907 30.2284 27.3756C30.7126 26.8143 30.6756 26.1262 30.5234 25.6318L30.4959 25.5428L30.4546 25.4594ZM25.2119 25.5562C24.9765 25.2952 24.6926 24.9859 24.3338 24.6272L24.3309 24.6242C23.0878 23.4257 22.5069 23.2169 22.0963 23.2169C21.8778 23.2169 21.6361 23.2415 21.4792 23.4368C21.4052 23.529 21.3663 23.6403 21.3445 23.7563C21.3227 23.872 21.3152 24.008 21.3152 24.1628V26.0434C21.3152 26.277 21.2768 26.3751 21.1688 26.4471C21.0249 26.543 20.7173 26.6207 20.0584 26.6213C18.8077 26.536 17.5951 26.1555 16.5199 25.5108C15.4425 24.8649 14.534 23.9721 13.8692 22.9062L13.862 22.8947L13.8534 22.884C12.2573 20.8973 11.145 18.5667 10.6045 16.0765C10.6074 15.9565 10.6334 15.8853 10.6755 15.8408C10.719 15.795 10.8242 15.7311 11.0917 15.7311H13.1817C13.4142 15.7311 13.5345 15.7817 13.6211 15.8603C13.7193 15.9495 13.8044 16.1008 13.9079 16.3711C14.4208 17.8799 15.1145 19.2909 15.7714 20.3284C16.0998 20.8469 16.4229 21.2786 16.714 21.5836C16.8594 21.7359 17.0019 21.8621 17.1379 21.9518C17.2696 22.0386 17.4188 22.1071 17.5723 22.1071C17.6533 22.1071 17.748 22.0987 17.8392 22.0583C17.9374 22.015 18.0135 21.9425 18.0673 21.8455C18.1624 21.6739 18.1885 21.4197 18.1885 21.0866V18.0032L18.188 17.996C18.1405 17.2459 17.914 16.8239 17.6935 16.5239C17.6452 16.4582 17.5975 16.3988 17.5558 16.3468L17.5444 16.3326C17.4986 16.2755 17.4622 16.2293 17.4322 16.1855C17.3774 16.1051 17.3561 16.049 17.3543 15.9889C17.3615 15.9176 17.3951 15.8515 17.4487 15.8036C17.5043 15.7539 17.5771 15.7281 17.6517 15.7311H20.9466C21.1355 15.7311 21.1991 15.7772 21.2311 15.8195C21.2763 15.8791 21.3152 16.003 21.3152 16.2631V20.4144C21.3152 20.9074 21.5425 21.2413 21.8726 21.2413C22.2525 21.2413 22.5263 21.0108 23.0051 20.532L23.0131 20.524L23.0203 20.5152C24.0935 19.2065 24.9706 17.7484 25.6235 16.1868L25.6276 16.1751C25.6768 16.0371 25.7696 15.919 25.8922 15.8387C26.0146 15.7585 26.16 15.7205 26.3061 15.7306L26.3141 15.7311H28.4134C28.6996 15.7311 28.7939 15.804 28.8243 15.8471C28.8567 15.893 28.8792 15.9912 28.8242 16.1839C28.0715 17.8673 27.1408 19.4652 26.0482 20.9507L26.0413 20.9612C25.9353 21.1234 25.8189 21.3029 25.8021 21.509C25.784 21.7302 25.8798 21.9314 26.0473 22.147C26.1694 22.3275 26.4212 22.574 26.6767 22.8241L26.7008 22.8477C26.9686 23.1098 27.2587 23.3938 27.4917 23.6688L27.4979 23.676L27.5047 23.6828C28.1991 24.3755 28.7765 25.1762 29.2144 26.0536C29.2843 26.2925 29.2415 26.4146 29.1871 26.4776C29.1236 26.5513 28.9812 26.6199 28.7116 26.6199H26.6202C26.4568 26.6199 26.3308 26.5877 26.2103 26.5241C26.0849 26.4579 25.9558 26.3524 25.7939 26.1897C25.6636 26.0586 25.5211 25.9001 25.3473 25.7067C25.3042 25.6588 25.2592 25.6086 25.2119 25.5562Z" stroke="white" stroke-width="0.4" mask="url(#path-2-outside-1_172_895)"/>
</g>
<defs>
<clipPath id="clip0_172_895">
<rect width="40" height="40" fill="white"/>
</clipPath>
</defs>
</svg>
