<svg width="81" height="76" viewBox="0 0 81 76" fill="none" xmlns="http://www.w3.org/2000/svg">
<g filter="url(#filter0_b_4142_141)">
<path d="M50.2155 21.7344C43.436 16.6678 36.9845 21.8087 26.5344 22.8351C11.1863 24.3319 7.17173 32.9958 11.3551 38.8215C15.5385 44.6472 24.9459 42.0398 30.7146 46.7661C36.661 51.2799 36.4281 61.1062 42.988 63.8495C49.5478 66.5927 56.9409 60.5679 54.7085 45.1919C53.3106 34.715 56.6987 27.1552 50.2155 21.7344Z" fill="#ECECF9"/>
</g>
<g filter="url(#filter1_b_4142_141)">
<path d="M38.1399 4.29402C37.828 12.3097 33.4199 18.6911 28.2729 18.5232C23.1259 18.3554 19.2343 11.7741 19.5678 3.70415C19.9013 -4.36578 24.2986 -10.72 29.4348 -10.5251C34.571 -10.3301 38.4626 -3.74879 38.1399 4.29402Z" fill="#ECECF9"/>
</g>
<g filter="url(#filter2_b_4142_141)">
<path d="M70.443 29.5282C62.9836 31.4446 58.1098 36.8098 59.5412 41.458C60.9726 46.1063 68.2566 48.401 75.7261 46.4594C83.1955 44.5179 88.0593 39.1779 86.6279 34.5296C85.1965 29.8813 77.9124 27.5867 70.443 29.5282Z" fill="#ECECF9"/>
</g>
<g filter="url(#filter3_b_4142_141)">
<path d="M62.5019 2.2247C58.5425 9.64459 51.466 13.6098 46.5095 11.0095C41.5531 8.40912 41.0386 0.387545 44.9711 -7.04309C48.9035 -14.4737 56.007 -18.4282 60.8018 -15.8923C65.5967 -13.3564 66.4344 -5.20593 62.5019 2.2247Z" fill="#ECECF9"/>
</g>
<g filter="url(#filter4_b_4142_141)">
<path d="M66.3233 5.04312C60.1631 10.7562 57.8978 18.6204 61.4119 22.6309C64.9259 26.6414 72.6753 25.2393 78.8355 19.5261C84.9957 13.813 87.261 5.94882 83.7729 1.94871C80.2848 -2.05141 72.5203 -0.686735 66.3233 5.04312Z" fill="#ECECF9"/>
</g>
<defs>
<filter id="filter0_b_4142_141" x="-15.1973" y="-5.46307" width="95.3123" height="94.954" filterUnits="userSpaceOnUse" color-interpolation-filters="sRGB">
<feFlood flood-opacity="0" result="BackgroundImageFix"/>
<feGaussianBlur in="BackgroundImageFix" stdDeviation="12.5"/>
<feComposite in2="SourceAlpha" operator="in" result="effect1_backgroundBlur_4142_141"/>
<feBlend mode="normal" in="SourceGraphic" in2="effect1_backgroundBlur_4142_141" result="shape"/>
</filter>
<filter id="filter1_b_4142_141" x="-5.45215" y="-35.5294" width="68.6108" height="79.0559" filterUnits="userSpaceOnUse" color-interpolation-filters="sRGB">
<feFlood flood-opacity="0" result="BackgroundImageFix"/>
<feGaussianBlur in="BackgroundImageFix" stdDeviation="12.5"/>
<feComposite in2="SourceAlpha" operator="in" result="effect1_backgroundBlur_4142_141"/>
<feBlend mode="normal" in="SourceGraphic" in2="effect1_backgroundBlur_4142_141" result="shape"/>
</filter>
<filter id="filter2_b_4142_141" x="34.2917" y="3.83624" width="77.5859" height="68.3152" filterUnits="userSpaceOnUse" color-interpolation-filters="sRGB">
<feFlood flood-opacity="0" result="BackgroundImageFix"/>
<feGaussianBlur in="BackgroundImageFix" stdDeviation="12.5"/>
<feComposite in2="SourceAlpha" operator="in" result="effect1_backgroundBlur_4142_141"/>
<feBlend mode="normal" in="SourceGraphic" in2="effect1_backgroundBlur_4142_141" result="shape"/>
</filter>
<filter id="filter3_b_4142_141" x="17.3625" y="-41.6596" width="72.6309" height="78.4675" filterUnits="userSpaceOnUse" color-interpolation-filters="sRGB">
<feFlood flood-opacity="0" result="BackgroundImageFix"/>
<feGaussianBlur in="BackgroundImageFix" stdDeviation="12.5"/>
<feComposite in2="SourceAlpha" operator="in" result="effect1_backgroundBlur_4142_141"/>
<feBlend mode="normal" in="SourceGraphic" in2="effect1_backgroundBlur_4142_141" result="shape"/>
</filter>
<filter id="filter4_b_4142_141" x="34.752" y="-25.343" width="75.6631" height="75.262" filterUnits="userSpaceOnUse" color-interpolation-filters="sRGB">
<feFlood flood-opacity="0" result="BackgroundImageFix"/>
<feGaussianBlur in="BackgroundImageFix" stdDeviation="12.5"/>
<feComposite in2="SourceAlpha" operator="in" result="effect1_backgroundBlur_4142_141"/>
<feBlend mode="normal" in="SourceGraphic" in2="effect1_backgroundBlur_4142_141" result="shape"/>
</filter>
</defs>
</svg>
