<svg width="50" height="50" viewBox="0 0 50 50" fill="none" xmlns="http://www.w3.org/2000/svg">
<circle cx="25" cy="25" r="23.5" transform="matrix(-1 0 0 1 50 0)" stroke="#744037" stroke-width="3"/>
<path d="M17.5022 23.897L26.3313 15.4426C26.4763 15.3024 26.6489 15.191 26.8389 15.1151C27.029 15.0391 27.2329 15 27.4388 15C27.6448 15 27.8487 15.0391 28.0388 15.1151C28.2288 15.191 28.4014 15.3024 28.5464 15.4426C28.8369 15.723 29 16.1022 29 16.4976C29 16.8929 28.8369 17.2721 28.5464 17.5525L20.8248 25.0343L28.5464 32.4412C28.8369 32.7216 29 33.1008 29 33.4962C29 33.8915 28.8369 34.2707 28.5464 34.5511C28.4019 34.6925 28.2296 34.805 28.0395 34.882C27.8494 34.9591 27.6452 34.9992 27.4388 35C27.2325 34.9992 27.0283 34.9591 26.8382 34.882C26.6481 34.805 26.4758 34.6925 26.3313 34.5511L17.5022 26.0967C17.3438 25.9566 17.2175 25.7865 17.1311 25.5972C17.0446 25.4079 17 25.2035 17 24.9969C17 24.7902 17.0446 24.5858 17.1311 24.3965C17.2175 24.2072 17.3438 24.0372 17.5022 23.897V23.897Z" fill="#744037"/>
</svg>
